<?xml version="1.0" standalone="no"?>
<!DOCTYPE svg PUBLIC "-//W3C//DTD SVG 1.1//EN" "http://www.w3.org/Graphics/SVG/1.1/DTD/svg11.dtd">
<svg xmlns="http://www.w3.org/2000/svg">
<metadata>Copyright (C) 2017 by original authors @ fontello.com</metadata>
<defs>
<font id="soxo-icons" horiz-adv-x="1000" >
<font-face font-family="soxo-icons" font-weight="400" font-stretch="normal" units-per-em="1000" ascent="850" descent="-150" />
<missing-glyph horiz-adv-x="1000" />
<glyph glyph-name="meal" unicode="&#xe800;" d="M153 132c11 0 19 8 19 19 0 179 145 325 324 327 2 0 3 0 4 0 1 0 3 0 4 0 179-2 324-148 324-327 0-11 8-19 19-19s19 8 19 19c0 180-131 329-302 360 10 13 16 29 16 47 0 45-36 81-80 81s-80-36-80-81c0-18 6-34 16-47-171-31-302-180-302-360 0-11 9-19 19-19z m305 426c0 23 19 42 42 42s42-18 42-42c0-22-18-40-40-41 0 0-1 0-2 0-1 0-1 0-2 0-22 1-40 19-40 41z m438-458h-792c-11 0-19-9-19-19s8-19 19-19h792c11 0 19 8 19 19s-8 19-19 19z" horiz-adv-x="1000" />

<glyph glyph-name="heart" unicode="&#xe801;" d="M500 52l-9 5c-58 34-346 214-346 394 0 109 88 198 197 198 62 0 120-29 157-78l1-1 1 1c37 49 95 78 157 78 109 0 197-89 197-198 0-196-288-363-345-394l-10-5z m-158 558c-88 0-159-71-159-159 0-153 258-319 318-355 71 39 316 189 316 355 0 88-71 159-159 159-50 0-97-23-127-63l-31-40-31 40c-30 40-77 63-127 63z" horiz-adv-x="1000" />

<glyph glyph-name="gift" unicode="&#xe802;" d="M706 492l-2 2 1 1c4 4 5 6 7 9 27 46 11 105-35 132-14 8-30 12-47 12-35 0-68-19-85-48-12-21-29-52-41-74l-2-4-2 4c-14 32-26 57-36 74-16 29-50 48-85 48-17 0-33-4-46-12-46-27-62-86-36-132 1-2 3-4 4-6l2-2-3-1c-25-10-42-34-42-61v-315c0-37 30-67 66-67h352c36 0 66 30 66 67v314c0 25-14 48-36 59z m-356 114c9 5 20 8 31 8 22 0 42-12 53-31 13-21 28-56 39-80l1-3h-45c-73 3-98 15-102 21-17 30-7 68 23 85z m133-519h-159c-17 0-32 14-32 32v216h191v-248z m0 283h-191v63c0 18 15 33 32 33h105c13-1 24-1 35-1 7 0 12 0 17 0l2 0v-95z m47 133c11 20 31 56 45 80 11 19 32 31 55 31 10 0 21-3 30-8 29-17 39-55 22-85-4-6-31-18-107-21h-43-3l1 3z m178-384c0-18-15-32-32-32h-159v248h191v-216z m0 251h-191v95l2 0c6 0 12 0 19 0 11 0 23 0 36 1h102c18 0 32-15 32-32v-64z" horiz-adv-x="1000" />

<glyph glyph-name="handshake" unicode="&#xe803;" d="M977 406l-3 3-7-1-94-71-1 1-172 226 2 1 92 70c4 3 5 9 2 13l-10 14c-2 2-5 3-8 3l-3 0-124-94h-217c-15 0-51-3-75-29l-1-1-22 11 9 11c1 2 2 4 1 7 0 2-1 5-3 6l-115 88c-2 1-4 1-6 1l-6 0-15-26 99-75-1-2-172-225-1 1-99 75-17-20c-1-2-2-4-2-7 1-2 2-4 4-6l115-87c1-2 3-2 5-2l6 0 19 25 15-11-1-1c-7-10-11-21-11-31-2-23 8-45 26-58 10-7 22-11 38-12l2 0 0-2c-1-21 9-41 26-54 13-9 28-13 44-12l2 1 0-2c0-2 0-3 0-4 3-18 12-33 26-43 10-8 24-12 38-12 11 0 21 3 31 8l2 1 0-2c5-11 12-20 21-27 11-8 24-12 38-12 11 0 21 3 31 8l1 0 6-4c11-8 24-12 38-12 4 0 8 0 11 1 17 2 32 11 42 25 5 8 9 16 10 25l1 3 2-1c8-4 16-5 25-5 22 0 42 10 54 26 7 10 11 21 11 33l1 2 2 0c3-1 7-1 11-1 20 0 40 10 52 27 7 10 11 22 11 35l0 2 2 0c23-2 45 8 58 26 11 15 14 32 11 49-1 10-5 19-11 27l-1 1 17 13 22-29c1-2 4-3 7-3l4 0 116 89c2 1 4 4 4 7l0 4-15 15z m-730-156c-6-7-15-11-25-11-6 0-11 2-15 5-6 4-10 11-12 19-1 8 1 16 6 22l19 26c6 8 15 13 24 13 6 0 12-2 17-6 6-4 10-11 11-19 1-8-1-16-6-22l-19-27z m67-67c-5-7-15-12-25-12-6 0-12 2-16 5-13 10-16 28-6 42l52 70c6 8 13 13 21 14 8 1 16-1 22-5 12-10 15-28 5-42l-53-72z m72-60c-6-8-15-12-25-12-6 0-12 1-16 5-9 6-13 16-12 28 1 4 3 9 7 14l79 108c6 8 13 13 21 14 8 1 16-1 22-5 8-7 13-17 11-29-1-4-3-9-6-14l-81-109z m92-32c-5-8-14-12-25-12-6 0-11 2-16 5-12 9-15 27-6 40l36 49c6 7 15 11 23 11 7 0 12-2 17-5 6-5 10-12 12-19 1-8-1-16-6-23l-35-46z m76-9c-5-7-14-12-24-12-1 0-3 0-5 1-3 0-7 2-11 4l-2 1 1 2 28 38c1 2 2 3 3 5l1 1 8-5c8-11 8-25 1-35z m241 172c-6-7-15-11-24-11-7 0-13 2-18 5l-117 84c-2 1-4 2-6 2l-5-1-12-17c-2-2-2-5-2-7l1-4 103-74c13-9 17-28 8-41-6-7-15-11-24-11-7 0-13 2-18 5l-99 71c-2 1-4 2-6 2l-5-1-12-17c-2-2-2-4-2-7l1-4 80-57c14-10 17-28 8-41-5-8-14-12-24-12-6 0-12 2-18 6l-27 19c-3 3-6 6-10 9l-13 10 0 1c-2 18-12 34-26 45-7 5-16 9-25 10l-3 1 1 2c5 8 7 17 8 25 1 23-8 44-26 57-10 8-23 12-37 12-15 0-30-5-41-13l-2-2-1 2c-5 10-11 17-19 23-10 8-23 12-37 12-16 0-31-5-42-14l-2-1-1 2c-4 9-11 17-19 23-10 7-23 11-37 11-20 0-39-8-51-23l-2-1-14 11 1 1 135 176 23-10-16-22c-10-14-14-31-12-49 3-17 12-32 25-42 14-10 31-14 48-12 18 3 33 12 44 27l28 39 42 1 1-2c11-41 51-75 90-75h86l0-1 114-81c7-4 11-11 12-19 2-8 0-16-4-22z m-1 80l-1 1-106 76-3 1h-97c-27 0-57 31-58 60l-1 17-87 0-5-1-39-53c-5-7-12-11-20-12-8-1-15 0-21 5-6 4-10 11-12 18-1 9 1 17 6 23l32 45c14 20 43 22 52 22h243l0-1 140-184-23-17z" horiz-adv-x="1000" />

<glyph glyph-name="localisation" unicode="&#xe804;" d="M500 664c-127 0-231-107-231-240 0-130 98-257 189-367 3-4 19-21 41-21h2c24 0 40 20 41 21 91 109 189 237 189 367 0 133-104 240-231 240z m198-240c0-119-94-241-182-346-2-2-9-9-15-9h-2c-6 0-13 6-15 9-88 105-182 228-182 346 0 114 89 207 198 207 109 0 198-93 198-207z m-198 136c-68 0-123-55-123-123 0-68 55-124 123-124 68 0 123 56 123 124 0 68-55 123-123 123z m0-211c-48 0-87 39-87 88s39 87 87 87c48 0 88-39 88-87s-40-88-88-88z" horiz-adv-x="1000" />

<glyph glyph-name="square" unicode="&#xe805;" d="M513 715c-7 7-19 7-26 0l-146-146c-7-7-7-19 0-26l146-146c7-7 19-7 26 0l146 146c7 7 7 19 0 26l-146 146z m206-206c-7 7-19 7-26 0l-146-146c-7-7-7-19 0-26l146-146c7-7 19-7 26 0l146 146c7 7 7 19 0 26l-146 146z m-219 167l120-120-120-120-120 120 120 120z m206-206l120-120-120-120-120 120 120 120z m-399 39c-7 7-19 7-26 0l-146-146c-7-7-7-19 0-26l146-146c7-7 19-7 26 0l146 146c7 7 7 19 0 26l-146 146z m206-206c-7 7-19 7-26 0l-146-146c-7-7-7-19 0-26l146-146c7-7 19-7 26 0l146 146c7 7 7 19 0 26l-146 146z m-219 167l120-120-120-120-120 120 120 120z m206-206l120-120-120-120-120 120 120 120z" horiz-adv-x="1000" />

<glyph glyph-name="search-2" unicode="&#xe806;" d="M731 156c-5 5-12 7-19 7s-13-2-18-7c-5-5-7-12-7-19 0-6 2-13 7-18l182-182c10-10 27-10 37 0 10 10 10 26 0 37l-182 182z m-99 520c-61 61-142 95-229 95s-168-34-229-95-95-143-95-229c0-87 34-168 95-229 61-61 143-95 229-95 87 0 168 34 229 95 126 126 126 331 0 458z m-37-421c-51-52-119-80-192-80s-141 28-192 80c-51 51-80 119-80 192s29 141 80 192c51 51 120 80 192 80 73 0 141-29 192-80 106-106 106-278 0-384z" horiz-adv-x="1000" />

<glyph glyph-name="phone" unicode="&#xe807;" d="M781 223c-21 22-50 34-81 34-31 0-60-12-82-34l-30-30c-27-27-74-27-100 0l-146 145c-27 28-27 73 0 100l31 31c22 21 33 50 33 81s-11 60-33 81l-63 63c-22 22-51 34-81 34-31 0-60-12-82-34l-31-31c-41-41-54-114-36-195 24-103 96-216 209-329 188-189 331-217 399-217 52 0 97 16 125 44l31 31c45 45 45 118 0 163l-63 63z m-470 84l146-146c21-22 50-34 81-34 31 0 60 12 81 34l31 30c27 27 73 27 100 0l63-62c27-28 27-73 0-100l-35-36c-21-17-52-27-90-27-61 0-191 27-368 204-136 136-182 242-197 308-18 78 1 131 24 154l32 31c13 13 31 21 50 21s36-8 50-21l62-63c14-13 21-31 21-50 0-19-7-37-21-50l-30-30c-45-45-45-118 0-163z m496 350c-78 78-183 121-296 121l-10 0c-12 0-21-10-21-23 0-12 10-21 23-21 103 2 201-36 273-108 72-72 110-169 108-273 0-6 2-12 6-16 4-5 9-7 15-7h1c12 0 22 9 22 22 3 116-40 225-121 305z m-314-57l7 0c67 0 130-26 177-73 48-48 74-114 73-184-1-12 9-22 21-23h1c12 0 22 10 22 22 2 83-28 159-86 216-55 56-129 86-208 86l-8 0c-12 0-22-11-22-23 1-12 10-21 23-21z m279-271l0 0 0 0 0 0z m-280 140l4 0c33 0 64-13 87-36 24-24 36-56 36-91 0-6 2-11 6-16 4-4 9-6 16-7h0c12 0 22 10 22 22 1 47-16 91-49 123-31 32-74 49-119 49l-4 0c-6 0-11-3-15-7-5-4-7-10-7-16 1-12 11-21 23-21z" horiz-adv-x="1000" />

<glyph glyph-name="messages" unicode="&#xe808;" d="M543 517h-297c-12 0-21-10-21-22 0-12 10-22 21-22h297c11 0 21 10 21 22 0 12-10 22-21 22z m-62 272h-173c-79 0-153-31-209-86s-86-130-86-209c0-137 98-259 233-287l32-7h-29c2-26-1-52-9-77-3-11-2-23 4-33 5-10 15-18 26-21 10-3 22-2 31 3 46 23 108 64 146 126l1 2h33c162 0 295 132 295 295 0 162-133 294-295 294z m0-546h-45c-8 0-16-4-19-11-24-46-67-86-128-118l-8-4 3 8c9 36 11 73 5 110-1 9-9 16-18 18-137 20-232 148-212 285 18 122 119 211 240 215l0 0 8 0h174c139 0 252-113 252-251 0-139-113-252-252-252z m62 369h-297c-12 0-21-10-21-22 0-12 9-21 21-21h297c11 0 21 9 21 21 0 12-10 22-21 22z m285-253c-1 0-2 0-3 0-11 0-20-8-21-18-1-6 0-12 4-17 3-4 8-7 14-8 62-9 111-58 120-120 6-37-3-75-26-105-23-31-56-51-93-56-10-1-17-9-18-18-3-16-3-32-1-48l1-7-6 4c-23 14-42 33-55 56-4 7-11 11-19 11h-27c-62 0-116 39-135 97 0 1 0 2-1 2-3 8-11 14-20 14-2 0-5 0-7-1-11-4-17-17-13-28 25-76 96-127 176-127h15l1-1c22-32 53-58 88-75 8-3 17-4 25-2 9 3 16 9 21 17 4 8 5 17 2 26-3 13-5 25-5 38l1 2 2 1c81 22 138 95 139 179 0 92-68 171-159 184z m-379 62h-203c-12 0-21-9-21-21 0-12 10-22 21-22h203c12 0 22 10 22 22s-10 21-22 21z" horiz-adv-x="1000" />

<glyph glyph-name="calc" unicode="&#xe809;" d="M794 8c0-9-2-17-7-25-4-7-10-13-18-17-7-4-15-6-24-6-10 0-21 0-32 0-48 0-96 0-145 0-59 0-119 0-178 0-41 0-82 0-123 0-4 0-8 0-12 0 0 0-1 0-2 0 0 0-1 0-2 1-1 0-3 0-4 0 3 0-1 0-1 0-3 0-5 1-8 2-1 0-2 1-3 1 2-1-2 1-2 1-3 1-5 3-7 4 0 0-3 2-1 1-1 0-2 1-3 2-1 2-3 3-5 5-1 1-1 2-2 3 2-2-1 2-1 2-2 2-3 4-4 6 0 1-2 4-1 2 0 1-1 2-1 3-1 2-1 5-2 7 0 1 0 5 0 2 0 2 0 3 0 5 0 2 0 3 0 5 0 28 0 55 0 83 0 52 0 104 0 156 0 60 0 121 0 181 0 54 0 107 0 160 0 31 0 62 0 92 0 2 0 5 0 7 0 0 0 0 0 0v1c0 1 0 2 0 3 0 1 0 2 0 3 0-1 0-1 0 0 0 3 1 5 2 7 0 2 0 3 1 4 1 4-1-2 0 1 1 2 3 5 4 7 0 1 1 2 2 3 1 1 1 1 0 0 0 1 1 1 1 2 2 2 4 3 5 5 1 1 2 1 3 2 3 3-2-1 1 1 2 1 4 3 6 4 1 0 3 1 4 1 1 1 1 1 0 1 1 0 1 0 2 0 3 1 5 2 7 2 1 1 3 1 4 1-3 0 1 0 2 0 1 0 2 0 4 0 2 0 5 0 7 0 38 0 75 0 113 0 59 0 118 0 178 0 50 0 101 0 152 0 12 0 25 0 38 0 3 0 6 0 9 0 0 0 4 0 1 0 1 0 3 0 4-1 2 0 5-1 7-2 0 0 4-1 1 0 1 0 3-1 4-2 2-1 5-2 7-4 3-2-2 2 1-1 1 0 2-1 3-2 2-2 3-3 5-5 0 0 2-3 1-1 0-1 1-2 2-3 1-3 2-5 4-8 1-3-1 3 0-1 1-1 1-2 1-4 1-2 2-4 2-7 1-4 0 3 0-1 0-2 0-3 0-4 0-1 0-1 0-1 0-1 0-1 0-2 0-3 0-6 0-9 0-12 0-25 0-37 0-46 0-91 0-137 0-59 0-118 0-178 0-57 0-115 0-172 0-41 0-81 0-121 0-9 0-18 0-28 0-7 6-13 13-13s13 6 13 13c0 20 0 39 0 58 0 48 0 95 0 142 0 60 0 120 0 180 0 56 0 113 0 170 0 37 0 75 0 113 0 6 0 13 0 20 0 40-32 73-72 74-25 1-51 0-76 0-56 0-112 0-168 0-56 0-113 0-169 0-27 0-54 0-82 0-40 0-73-34-73-74 0-6 0-11 0-17 0-37 0-73 0-110 0-56 0-112 0-168 0-60 0-120 0-180 0-48 0-97 0-145 0-21 0-42 0-63 0-40 33-73 73-73 8 0 16 0 24 0 45 0 91 0 136 0 60 0 120 0 180 0 44 0 89 0 133 0 7 0 14 0 21 0 40 0 73 33 73 73 0 7-6 13-13 13-7 0-13-6-13-13z m-47-82h-494c-44 0-82 38-82 82v683c0 45 38 83 83 83h418c8 0 16 0 25 0 17 0 34 0 51 0 45-2 81-39 81-83v-682l-8-1 8 0-2 0h2l-8 0 8 0c-1-45-38-82-82-82z m-558 92v-10c0-35 29-65 64-65h494c27 0 51 18 60 44-3-1-5 0-8 1-1-3-2-6-4-9-5-9-13-16-22-21-8-4-17-6-28-6l-498 0 0 2-1-2-2 0c-3 1-6 2-8 3-1 0-1 0-2 0l0 0c-1 0-2 1-2 1l0 1 0-1-4 2c-2 1-4 2-7 4h0l-1 1 0 0-5 4 0 0c-2 1-3 2-4 3h0l-2 3c0 0 0 1-1 1l2 2-2-1-2 2c-1 3-3 5-4 7l-3 7 1 0-11 27z m59-49l19 0h478c8 0 14 2 20 4 6 4 11 9 15 15 4 6 6 13 6 20l0 685 0 0-1 3 1 0 0 0c-1 3-1 5-2 7l-1 3 0 0 0 0c-1 3-2 5-4 7l-2 3c-1 2-3 3-4 4l-2 2 0 0c-3 2-5 4-7 5l-4 1c-2 1-4 1-6 2l-4 0c-2 0-4 0-6 0h-490c-2 0-3 0-4 0 0 0-1 0-2 0l-2 0c-2-1-4-1-6-2l0 0-4-2c-2-1-4-2-6-3l0 0 0 0c-1-1-2-2-3-2-1-2-3-3-4-5l0 0-3-4c-1-2-2-3-3-5v0l-1-4c0-2-1-4-1-6l-1-13 1-681c0-3 1-5 1-7l1-3c2-3 3-4 4-6 0-1 1-2 1-3 1 0 1-1 2-1 1-2 2-3 4-4l0-1 3-2c2-1 4-2 5-3 1 0 2 0 2-1l3-1c2 0 4-1 6-1 1 0 1 0 1-1z m555 39c0-4 8-4 8 0l6 0-6 0c0 5-8 5-8 0z m-608 13l2-1v671c0 1 0 2 0 3l0 0 0 5 7-1-7 1c1 3 2 6 2 9 1 1 1 1 1 2v8l4 0c0 1 1 2 1 3 1 1 2 2 2 3l6-2-5 3c0 0 0 0 0 0l0 0c0 0 0 0 0 1l3 3c1 1 3 3 4 4 0 0 0 0 0 0v5l7 1c2 1 4 2 5 3l7 3c1 0 3 0 4 1l0 0 6 1c1 0 1 0 2 1l0 0 1-5v5c3 0 5 0 7 0h490c3 0 5 0 7 0l7-1c2-1 5-1 8-2l2-1 0 0 6-3 0 0c1-1 2-1 3-2h7l0-5c3-2 4-4 6-6l2-2 0 0 5-7h3l0-9c0 0 0-1 1-2 0 0 0-1 0-1h2l0-12c0-1 0-1 0-2l0-664c3 1 6 1 8 0v662c0 35-28 64-63 65-17 1-34 1-51 0-8 0-17 0-25 0h-418c-36 0-65-29-65-65v-662l6-8z m527 498c-28 0-56 0-83 0-58 0-116 0-174 0-50 0-101 0-152 0-11 0-23 0-34 0 4-4 8-8 12-13 0 46 0 91 0 137 0 5 0 11 0 16-4-4-8-9-12-13 27 0 55 0 82 0 58 0 116 0 174 0 51 0 101 0 152 0 12 0 23 0 35 0-5 4-9 9-13 13 0-46 0-91 0-137 0-5 0-10 0-16 0-7 6-13 13-13 7 0 12 6 12 13 0 46 0 91 0 137 0 5 0 11 0 16 0 7-5 13-12 13-28 0-56 0-83 0-58 0-116 0-174 0-50 0-101 0-152 0-11 0-23 0-34 0-7 0-13-6-13-13 0-46 0-91 0-137 0-5 0-10 0-16 0-7 6-13 13-13 27 0 55 0 82 0 58 0 116 0 174 0 51 0 101 0 152 0 12 0 23 0 35 0 7 0 12 6 12 13 0 7-5 13-12 13z m0-34h-444c-11 0-21 9-21 21v153c0 12 10 22 21 22h444c12 0 21-10 21-22v-153c0-12-9-21-21-21z m-422 17h400c0 2 0 3 0 4v4h-400v-8z m417 26h5c1 0 2 0 4-1v110h-9v-109z m-417 0h400v109h-400v-109z m-26 0h9v109h-9v-109z m26 127h400v8h-400v-8z m83-299c-35 0-70 0-104 0 4-4 8-9 12-13 0 29 0 57 0 86-4-5-8-9-12-13 34 0 69 0 104 0-5 4-9 8-13 13 0-29 0-57 0-86 0-7 6-13 13-13 7 0 12 6 12 13 0 29 0 57 0 86 0 7-5 13-12 13-35 0-70 0-104 0-7 0-13-6-13-13 0-29 0-57 0-86 0-7 6-13 13-13 34 0 69 0 104 0 7 0 12 6 12 13 0 7-5 13-12 13z m0-35h-105c-11 0-21 10-21 22v86c0 12 10 21 21 21h105c11 0 21-9 21-21v-86c0-12-10-22-21-22z m-83 18h61c0 1 0 3 0 4v4h-61v-8z m78 26h5c1 0 2 0 4-1v43h-9v-42z m-78 0h61v42h-61v-42z m-26 0h9v42h-9v-42z m26 60h61v8h-61v-8z m252-69c-35 0-69 0-104 0 4-4 9-9 13-13 0 29 0 57 0 86-4-5-9-9-13-13 35 0 69 0 104 0-4 4-9 8-13 13 0-29 0-57 0-86 0-7 6-13 13-13s13 6 13 13c0 29 0 57 0 86 0 7-6 13-13 13-35 0-69 0-104 0-7 0-13-6-13-13 0-29 0-57 0-86 0-7 6-13 13-13 35 0 69 0 104 0 7 0 13 6 13 13 0 7-6 13-13 13z m0-35h-104c-12 0-22 10-22 22v86c0 12 10 21 22 21h104c12 0 22-9 22-21v-86c0-12-10-22-22-22z m-82 18h61c0 1-1 3-1 4v4h-60v-8z m78 26h4c2 0 3 0 4-1v43h-8v-42z m-78 0h60v42h-60v-42z m-26 0h8v42h-8v-42z m26 60h60v8h-60v-8z m252-69c-35 0-70 0-104 0 4-4 8-9 12-13 0 29 0 57 0 86-4-5-8-9-12-13 34 0 69 0 104 0-5 4-9 8-13 13 0-29 0-57 0-86 0-7 6-13 13-13 7 0 12 6 12 13 0 29 0 57 0 86 0 7-5 13-12 13-35 0-70 0-104 0-7 0-13-6-13-13 0-29 0-57 0-86 0-7 6-13 13-13 34 0 69 0 104 0 7 0 12 6 12 13 0 7-5 13-12 13z m0-35h-104c-12 0-22 10-22 22v86c0 12 10 21 22 21h104c12 0 21-9 21-21v-86c0-12-9-22-21-22z m-83 18h61c0 1 0 3 0 4v4h-61v-8z m78 26h5c1 0 2 0 4-1v43h-9v-42z m-78 0h61v42h-61v-42z m-26 0h9v42h-9v-42z m26 60h61v8h-61v-8z m-256-224c-35 0-70 0-104 0 4-4 8-9 12-13 0 29 0 57 0 86-4-5-8-9-12-13 34 0 69 0 104 0-5 4-9 8-13 13 0-29 0-57 0-86 0-7 6-13 13-13 7 0 12 6 12 13 0 29 0 57 0 86 0 7-5 13-12 13-35 0-70 0-104 0-7 0-13-6-13-13 0-29 0-57 0-86 0-7 6-13 13-13 34 0 69 0 104 0 7 0 12 6 12 13s-5 13-12 13z m0-35h-105c-11 0-21 10-21 22v86c0 12 10 21 21 21h105c11 0 21-9 21-21v-86c0-12-10-22-21-22z m-83 18h61c0 1 0 3 0 4v4h-61v-8z m78 26h5c1 0 2 0 4-1v43h-9v-42z m-78 0h61v42h-61v-42z m-26 0h9v42h-9v-42z m26 60h61v8h-61v-8z m252-69c-35 0-69 0-104 0 4-4 9-9 13-13 0 29 0 57 0 86-4-5-9-9-13-13 35 0 69 0 104 0-4 4-9 8-13 13 0-29 0-57 0-86 0-7 6-13 13-13s13 6 13 13c0 29 0 57 0 86 0 7-6 13-13 13-35 0-69 0-104 0-7 0-13-6-13-13 0-29 0-57 0-86 0-7 6-13 13-13 35 0 69 0 104 0 7 0 13 6 13 13s-6 13-13 13z m0-35h-104c-12 0-22 10-22 22v86c0 12 10 21 22 21h104c12 0 22-9 22-21v-86c0-12-10-22-22-22z m-82 18h61c0 1-1 3-1 4v4h-60v-8z m78 26h4c2 0 3 0 4-1v43h-8v-42z m-78 0h60v42h-60v-42z m-26 0h8v42h-8v-42z m26 60h60v8h-60v-8z m-87-224c-35 0-70 0-104 0 4-4 8-9 12-13 0 29 0 57 0 86-4-5-8-9-12-13 34 0 69 0 104 0-5 4-9 8-13 13 0-29 0-57 0-86 0-7 6-13 13-13 7 0 12 6 12 13 0 29 0 57 0 86 0 7-5 13-12 13-35 0-70 0-104 0-7 0-13-6-13-13 0-29 0-57 0-86 0-7 6-13 13-13 34 0 69 0 104 0 7 0 12 6 12 13s-5 13-12 13z m0-35h-105c-11 0-21 10-21 22v86c0 12 10 21 21 21h105c11 0 21-9 21-21v-86c0-12-10-22-21-22z m-83 18h61c0 1 0 3 0 4v4h-61v-8z m78 26h5c1 0 2 0 4-1v43h-9v-42z m-78 0h61v42h-61v-42z m-26 0h9v42h-9v-42z m26 60h61v8h-61v-8z m252-69c-35 0-69 0-104 0 4-4 9-9 13-13 0 29 0 57 0 86-4-5-9-9-13-13 35 0 69 0 104 0-4 4-9 8-13 13 0-29 0-57 0-86 0-7 6-13 13-13s13 6 13 13c0 29 0 57 0 86 0 7-6 13-13 13-35 0-69 0-104 0-7 0-13-6-13-13 0-29 0-57 0-86 0-7 6-13 13-13 35 0 69 0 104 0 7 0 13 6 13 13s-6 13-13 13z m0-35h-104c-12 0-22 10-22 22v86c0 12 10 21 22 21h104c12 0 22-9 22-21v-86c0-12-10-22-22-22z m-82 18h61c0 1-1 3-1 4v4h-60v-8z m78 26h4c2 0 3 0 4-1v43h-8v-42z m-78 0h60v42h-60v-42z m-26 0h8v42h-8v-42z m26 60h60v8h-60v-8z m239 159c0-41 0-82 0-123 0-40 0-79 0-118 4 4 8 9 13 13-35 0-70 0-104 0 4-4 8-9 12-13 0 41 0 82 0 123 0 39 0 79 0 118-4-5-8-9-12-13 34 0 69 0 104 0 7 0 12 6 12 13s-5 13-12 13c-35 0-70 0-104 0-7 0-13-6-13-13 0-41 0-82 0-123 0-40 0-79 0-118 0-7 6-13 13-13 34 0 69 0 104 0 7 0 12 6 12 13 0 41 0 82 0 123 0 39 0 79 0 118 0 7-5 13-12 13-7 0-13-6-13-13z m13-263h-104c-12 0-22 10-22 22v241c0 12 10 21 22 21h104c12 0 21-9 21-21v-241c0-12-9-22-21-22z m-83 18h61v8h-61v-8z m78 26h9v198c-2-1-3-1-4-1h-5v-197z m-78 0h61v197h-61v-197z m-26 0h9v197h-9v-197z m26 215h61v4c0 1 0 3 0 4h-61v-8z" horiz-adv-x="1000" />

<glyph glyph-name="shopping" unicode="&#xe80a;" d="M37 780c-12 0-21-10-22-22 0-12 10-22 23-22h102c9 0 17-6 20-14 54-132 106-264 159-396 2-6 2-12 0-17l-48-116c-6-13 5-30 20-30h551c11 0 22 10 22 22s-11 22-22 22h-484c-16 0-27 16-21 31l19 46c3 7 10 13 19 13l524 42c9 1 17 8 19 17l66 287c3 13-8 26-21 27h-719c-9 0-18 5-21 14l-33 82c-3 8-12 14-20 14h-133z m242-154h628c15 0 25-14 22-28l-46-200c-3-10-11-17-20-18l-486-38c-10-1-19 5-23 14l-96 239c-6 14 5 31 21 31z m133-507c-54 0-99-45-99-100 0-54 45-99 99-99 55 0 99 45 99 99 0 55-44 100-99 100z m309 0c-55 0-100-45-100-100 0-54 45-99 100-99 54 0 99 45 99 99 0 55-45 100-99 100z m-346-56c58 37 118-22 80-81-1-2-3-4-6-6-58-38-118 22-80 80 1 3 4 5 6 7z m309 0c58 37 118-22 80-81-2-2-4-4-7-6-57-38-117 22-80 80 2 3 4 5 7 7z" horiz-adv-x="1000" />

<glyph glyph-name="play" unicode="&#xe80b;" d="M436 548c-4 3-10 5-16 5-13 0-28-7-30-29l0-348c2-21 17-28 29-28 7 0 13 2 17 5l253 173c6 3 13 12 14 23 0 9-4 18-13 25l-254 174z m186-198l-173-118v236l173-118z m-122 470c-259 0-470-211-470-470 0-259 211-470 470-470 259 0 470 211 470 470 0 259-211 470-470 470z m411-470c0-227-184-411-411-411s-411 184-411 411 184 411 411 411 411-184 411-411z" horiz-adv-x="1000" />

<glyph glyph-name="touch" unicode="&#xe80c;" d="M433 837c-12 0-21-9-21-21v-124c0-11 9-21 21-21s20 10 20 21v124c0 12-9 21-20 21z m239-135c-3 0-7-1-11-3l-108-62c-10-5-13-18-8-28s19-13 28-7l108 62c10 6 14 18 8 28-5 7-11 10-17 10z m-480 0c-6-1-12-4-16-10-5-10-2-22 8-28l108-62c10-6 22-3 28 7 6 10 2 23-8 28l-107 62c-5 3-9 3-13 3z m241-72c-46 0-83-37-83-83v-265c-13 28-36 58-65 65-39 11-88-20-98-57-6-20-2-43 9-72 53-129 120-254 200-348 4-4 10-7 16-7h280c4 0 9 1 12 4 30 22 54 60 74 105s35 97 43 148c8 50 8 98-3 140-11 41-40 75-83 80-10 0-20-1-29-3-6 13-13 23-22 30-16 11-32 14-44 14-13 0-24-5-34-11-4 6-9 13-15 18-15 11-31 14-44 14-11 0-21-3-31-7v152c-1 55-45 83-83 83l0 0z m0-42c23 0 41-18 41-41v-197c0-9 7-18 16-20s20 2 24 11c4 10 21 19 33 19 5 0 14-2 20-6 6-4 11-10 11-25 0-9 7-18 16-20 9-2 19 3 23 11 8 17 13 20 23 20 3 0 13-2 20-7 6-4 11-10 11-24 0-8 5-16 12-19 8-4 17-2 23 3 8 4 15 5 26 5 24-3 37-18 46-49 9-32 9-76 2-123-7-47-22-96-40-137-17-39-38-69-57-85h-261c-73 86-142 218-188 329-9 24-10 38-8 46 8 20 30 31 48 29 22-9 27-23 37-40l41-83c4-8 14-13 23-10 9 2 16 10 16 20v352c0 23 18 41 42 41z" horiz-adv-x="1000" />

<glyph glyph-name="user" unicode="&#xe80d;" d="M500 768c-230 0-418-188-418-418s188-418 418-418 418 188 418 418-188 418-418 418z m0-788c-117 0-224 54-295 147 71 94 178 147 295 147s224-53 295-147c-71-93-178-147-295-147z m0 740c204 0 370-166 370-370 0-65-16-126-47-180-79 97-197 152-323 152-126 0-243-55-323-152-30 55-47 118-47 180 0 204 166 370 370 370z m0-363c82 0 149 67 149 148s-67 149-149 149-148-67-148-149 66-148 148-148z m0 249c55 0 100-45 100-101s-45-100-100-100-100 45-100 100 45 101 100 101z" horiz-adv-x="1000" />

<glyph glyph-name="envelope-open" unicode="&#xe80e;" d="M637 507c-1 2-4 2-5 0l-108-107v196c0 2-2 4-4 4h-34c-2 0-4-2-4-4v-199l-110 110c-1 1-2 1-3 1-1 0-2 0-2-1l-24-24c-1 0-1-1-1-2 0-1 0-2 1-3l156-157c3-2 5-1 6 0l156 157c1 1 1 2 1 3 0 1 0 2-1 2l-24 24z m281-65c0 5-1 10-1 15-3 22-12 44-28 61-5 6-12 12-19 17-2 1-3 2-5 3l-363 213-2 1-364-213c-2-2-4-3-5-4-8-5-14-11-20-17-15-16-25-37-28-59 0-2 0-4-1-6 0-3 0-7 0-10v-382c0-62 50-113 112-113h612c62 0 112 51 112 113l0 381z m-791-385v327l3-2c2-2 3-3 5-4l363-213 2-1 364 214c2 1 4 2 5 3l3 2 1-326c0-35-29-64-64-64h-618c-35 0-64 29-64 64z m744 400c-2-10-7-20-15-27-4-5-8-8-13-12l-343-200-343 200c-5 4-9 7-13 12-8 8-13 18-15 28l0 1 0 0c3 11 7 20 15 28 4 4 8 8 13 11l343 201 343-201c5-3 9-7 14-12 7-8 12-17 14-28l0-1 0 0z" horiz-adv-x="1000" />

<glyph glyph-name="devices" unicode="&#xe80f;" d="M63 702c-10-1-19-10-19-20v-456c0-11 10-21 21-21h284l-41-166h-36c-1 0-1 0-2 0-11 0-20-11-20-22 1-10 11-20 22-19h352c11-1 21 9 21 20s-10 21-21 21h-35l-42 166h119v-187c0-10 10-20 21-20h248c11 0 21 10 21 20v456c0 11-10 21-21 21h-83v187c0 11-9 20-20 20h-767c-1 0-1 0-2 0z m23-41h725v-166h-124c-11 0-21-10-21-21v-228h-580v415z m621-207h208v-21h-208v21z m0-62h208v-270h-208v270z m-315-187h113l41-166h-196l42 166z m315-124h208v-42h-208v42z" horiz-adv-x="1000" />

<glyph glyph-name="business-man" unicode="&#xe810;" d="M893 370l-3 2c-32 12-58 22-72 37l-1 1 1 1c0 2 3 5 7 6 42 12 73 51 73 92v108c0 82-73 153-160 153-84 0-155-71-155-155v-106c0-43 28-80 70-92 2 0 3-2 3-4 1-1 0-2 0-3v0l-1-1c-13-15-41-26-73-39l-1 0c-73-29-173-68-186-197-2-23 11-44 32-53l240-98-3-29c-1-16 7-32 22-40l31-18c12-7 28-7 41 0l30 18c15 8 23 23 22 40l-3 29 2 1 237 97c22 9 35 31 32 53-13 130-113 169-185 197z m-118-393l-31-18c-2-1-4-1-7-1-2 0-4 0-7 1l-31 18c-5 3-8 8-7 14l20 218c1 7 5 14 10 20l4 4c4 4 7 9 9 15l2 6 2-6c2-6 5-11 9-15l4-4c6-5 9-12 10-19l20-219c1-6-2-11-7-14z m-64 332c0 3 1 5 3 6l20 12c1 1 2 2 3 2 2 0 3-1 4-1l19-13c2-1 3-3 3-6 0-8-3-17-10-22l-4-4c-5-4-8-9-10-15l-2-7-2 7c-2 6-5 11-10 16l-4 3c-6 6-10 14-10 22z m325-162l-232-95-15 160c-1 14-7 27-18 37l-4 4c-1 2-1 4-1 5 0 1 0 3 2 4l4 4c12 11 19 26 19 43 0 12-5 23-15 29l-20 12c-11 7-26 7-37 0l-19-12c-10-7-16-17-16-29 0-17 7-32 20-43l4-4c1-1 2-3 2-4 0-2-1-3-2-5l-4-4c-11-10-17-24-18-38l-15-160-3 1-230 95c-10 4-16 13-15 23 12 113 95 146 168 174l1 1c35 14 66 26 84 46 7 8 10 19 7 30-4 12-12 20-22 23-30 8-50 34-50 64v107c0 33 13 64 37 88 25 25 58 39 91 39 70 0 131-59 131-125v-108c0-33-26-57-53-65-12-3-22-13-26-25-3-11-1-20 6-28 18-20 49-32 85-46l0 0c74-29 157-61 169-174 0-11-6-21-15-24z m-276 361c-4-8-12-13-21-14-1 0-1 0-2 0-10 0-19 5-24 13-2 3-5 5-9 5-2 0-3-1-5-2-5-3-6-9-3-14 9-16 27-24 45-23 15 2 30 11 37 24 3 5 2 12-3 15-5 3-12 1-15-4z" horiz-adv-x="1474" />

<glyph glyph-name="people" unicode="&#xe811;" d="M738 307c103 0 186 84 186 187s-83 186-186 186-186-84-186-186c0-103 83-187 186-187z m-109 296c29 29 68 45 109 45 85 0 155-69 155-154 0-86-70-155-155-155-85 0-155 69-155 155 0 41 16 80 46 109z m209-346h-209c-122 0-221-99-221-221 0-9 7-16 16-16s15 7 15 16c0 104 85 189 190 189h209c105 0 190-85 190-189 0-9 7-16 15-16 9 0 16 7 16 16 0 59-23 114-65 156-42 42-97 65-156 65z m-344 199c0 78-63 141-141 141-77 0-141-63-141-141 0-77 64-140 141-140 78 0 141 63 141 140z m-250 0c0 61 49 109 109 109 60 0 109-48 109-109 0-60-49-109-109-109-60 0-109 49-109 109z m182-196h-153c-91 0-166-74-166-166 0-8 7-16 16-16s16 8 16 16c0 74 60 135 134 135h153c9 0 16 7 16 16 0 8-7 15-16 15z m695 56c77 0 140 63 140 140 0 78-63 141-140 141-78 0-141-63-141-141 0-37 15-72 41-99 27-27 62-41 100-41z m-77 217c20 21 48 32 77 32 60 0 109-48 109-109 0-60-49-109-109-109-60 0-109 49-109 109 0 29 11 57 32 77z m-306-143c2 0 4 1 6 1 20 2 39 13 49 31 5 8 2 17-6 22-7 4-17 1-21-6-5-9-15-15-25-16-12-1-23 5-29 15-5 7-15 9-22 5-7-5-10-15-5-22 12-19 32-30 53-30z m380 0c1 0 3 1 5 1 21 2 39 13 49 31 5 8 2 17-5 22-8 4-18 1-22-6-5-9-14-15-25-16-11-1-23 5-29 15-5 7-15 9-22 5-7-5-9-15-5-22 12-19 32-30 54-30z m-717 54c-7 4-17 1-21-6-5-9-14-15-25-16-11-1-23 5-29 15-5 7-15 9-22 5-7-5-9-15-5-22 12-19 32-30 53-30 2 0 4 1 6 1 21 1 39 13 49 31 5 8 2 17-6 22z m800-184h-154c-8 0-15-7-15-15 0-9 7-16 15-16h154c74 0 134-61 134-135 0-8 7-16 16-16s16 8 16 16c0 44-18 86-49 118-31 31-73 48-117 48z" horiz-adv-x="1474" />

<glyph glyph-name="building" unicode="&#xe812;" d="M1192 56c-37 0-68-30-68-68 0-33 23-58 53-65v-36h-65v916c0 5-3 10-7 12-4 3-10 3-14 0l-223-136c-4-2-7-7-7-12v-184h-13l-11 145c0 6-7 12-14 12h-34c-7 0-13-6-13-12l-10-145h-12v131c0 5-4 11-10 12l-223 82c-4 1-8 1-12-2-4-2-5-6-5-10v-305h-119c-8 0-13-6-13-14v-491h-76v37c32 5 57 34 57 68 0 38-32 69-70 69s-69-31-69-69c0-34 23-61 54-68v-37h-23c-8 0-13-5-13-14s5-13 13-13h978c8 0 14 5 14 13s-6 14-14 14h-19v34c31 6 56 33 56 67 0 38-30 69-68 69z m-951-64c0 23 19 42 42 42 23 0 42-19 42-42 0-23-19-42-42-42s-42 18-42 42z m649 667l196 120v-893h-85v584c0 8-5 13-13 13h-98v176l0 0z m-87-46h9l10-130h-27l8 130z m171-157v-570h-58v63c0 28-23 51-52 51-28 0-52-23-52-51v-63h-57v570h219z m-85-569h-48v63c0 14 11 25 24 25s25-11 25-25v-63h-1z m-358 790l196-73v-717h-82v490c0 8-5 14-14 14h-100v286z m-132-313h219v-478h-64v63c0 28-23 51-52 51-28 0-51-23-51-51v-63h-53v478h1z m129-477h-48v63c0 14 11 25 25 25 14 0 24-11 24-25v-63h-1z m664 60c-22 0-41 18-41 41 0 23 18 41 41 41 22 0 41-18 41-41 0-23-18-41-41-41z m-260 561m56 0m-208 152c23 0 42 19 42 42s-19 43-42 43c-23 0-42-20-42-43s19-42 42-42z m0 57c8 0 15-6 15-15 0-8-7-15-15-15s-15 7-15 15c0 9 7 15 15 15z m-106-4c35 0 64 29 64 64s-29 64-64 64-64-28-64-64 28-64 64-64z m0 100c20 0 36-17 36-37s-16-37-36-37c-21 0-37 16-37 37s16 37 37 37z m132-490h117c8 0 13 5 13 13s-5 14-13 14h-117c-9 0-14-5-14-14s7-13 14-13z m0 61h117c8 0 13 6 13 14s-5 13-13 13h-117c-9 0-14-5-14-13s7-14 14-14z" horiz-adv-x="1474" />

<glyph glyph-name="city-hall" unicode="&#xe813;" d="M624 223h64c8 0 14 6 14 14v97c0 8-6 14-14 14h-64c-8 0-14-6-14-14v-97c0-8 6-14 14-14z m14 97h36v-69h-36v69z m-14 97h64c8 0 14 6 14 14v97c0 7-6 14-14 14h-64c-8 0-14-7-14-14v-97c0-8 6-14 14-14z m14 97h36v-69h-36v69z m-136 18l235 141 1-1 234-140c2-1 5-2 7-2 5 0 10 2 12 7 4 6 2 15-5 19l-235 141v107h85v-36h-51c-7 0-14-6-14-14 0-8 7-14 14-14h65c8 0 14 6 14 14v64c0 8-6 14-14 14h-113c-8 0-14-6-14-14v-121l-1 0-235-141c-3-2-5-5-6-9-1-3 0-7 2-10 3-7 12-9 19-5z m-86-295c0-8 6-14 14-14s14 6 14 14v97c0 8-6 14-14 14h-65c-7 0-14-6-14-14v-32c0-8 7-14 14-14s14 6 14 14v18h37v-83z m125-226v468c0 8-6 14-14 14s-14-6-14-14v-468c0-8 6-14 14-14s14 6 14 14z m-79-79h549c8 0 14 6 14 14 0 8-6 14-14 14h-147v166h18c8 0 14 6 14 14 0 8-6 14-14 14h-290c-8 0-14-6-14-14 0-8 6-14 14-14h18v-166h-148c-7 0-14-6-14-14 0-8 7-14 14-14z m289 97h2c8 0 14 6 14 14 0 8-6 14-14 14h-2v69h85v-166h-85v69z m-113 97h85v-69h-2c-8 0-14-6-14-14 0-8 6-14 14-14h2v-69h-85v166z m438-230h-678c-8 0-14-7-14-14 0-8 6-14 14-14h678c8 0 14 6 14 14 0 7-6 14-14 14z m129 581c-7 0-14-6-14-14v-18h-180c-7 0-14-6-14-14 0-8 7-14 14-14h180v-535c0-8 7-14 14-14 8 0 14 6 14 14v581c0 8-6 14-14 14z m-420-254h65c8 0 14 6 14 14v97c0 8-6 14-14 14h-65c-7 0-14-6-14-14v-97c0-8 7-14 14-14z m14 97h37v-69h-37v69z m-466-69c-78 0-78-206-78-208 0-37 26-69 62-77l2 0v-84c0-8 6-14 14-14s14 6 14 14v84l2 0c36 8 63 40 63 77 0 2-1 208-79 208z m0-259c-28 0-50 23-50 51 0 74 19 180 50 180 31 0 51-107 51-180 0-28-23-51-51-51z m628 19v484c0 8-6 14-14 14-8 0-14-6-14-14v-484c0-8 6-14 14-14 8 0 14 6 14 14z m-176 406h65c8 0 14 6 14 14v97c0 7-6 14-14 14h-65c-7 0-14-7-14-14v-97c0-8 7-14 14-14z m14 97h37v-69h-37v69z m-530-243c7 0 14 7 14 14v132h179c8 0 14 6 14 14 0 8-6 14-14 14h-179v18c0 8-7 14-14 14-8 0-14-6-14-14v-178c0-7 6-14 14-14z" horiz-adv-x="1474" />

<glyph glyph-name="person" unicode="&#xe814;" d="M651 323c76 49 127 135 127 233 0 153-124 278-278 278s-278-125-278-278c0-98 51-184 127-233-172-63-296-227-296-421 0-20 16-36 36-36s35 16 35 36c0 207 169 375 376 375 207 0 376-168 376-375 0-20 16-36 35-36s36 16 36 36c0 194-124 358-296 421z m-357 233c0 114 92 206 206 206s207-92 207-206-93-207-207-207-206 93-206 207z" horiz-adv-x="1000" />

<glyph glyph-name="close" unicode="&#xe815;" d="M554 350l310 310c15 15 15 39 0 54-15 15-39 15-54 0l-310-310-310 310c-15 15-39 15-54 0-15-15-15-39 0-54l310-310-310-310c-15-15-15-39 0-54 15-15 39-15 54 0l310 310 310-310c15-15 39-15 54 0 15 15 15 39 0 54l-310 310z" horiz-adv-x="1000" />

<glyph glyph-name="check" unicode="&#xe816;" d="M254 402c-15 15-39 15-55 0-15-15-15-39 0-54l197-201 0 0 0 0 1-1 2-1 1-2 2-1 2-1 1-1 2-1 2 0 2-1 1-1 3 0h1 2 2 3l0 0h4 1 3 1l2 0 2 1 2 1 1 0 2 1 2 1 2 1 1 1 2 1 1 2 2 1 0 0 0 0 350 350c15 15 15 40 0 55-15 15-40 15-55 0l-323-323-169 173z" horiz-adv-x="1000" />

<glyph glyph-name="download" unicode="&#xe817;" d="M205 802c-19 0-29-17-29-30v-844c0-16 14-30 29-30h590c15 0 29 14 29 30v687c0 8-3 16-9 21l-157 157c-5 6-13 9-21 9h-432l0 0z m30-59h373v-128c0-16 13-29 29-29h128v-629h-530v786l0 0z m432-42l57-56h-57v56z m-167-233c-16 0-29-13-29-30v-203l-48 48c-12 11-31 11-42 0-12-12-11-30 0-42l97-97c5-6 13-10 22-10s17 4 22 10l97 97c12 12 12 30 0 42-11 11-30 11-42 0l-47-48v203c-1 17-14 30-30 30l0 0z" horiz-adv-x="1000" />

<glyph glyph-name="icon-target" unicode="&#xe818;" d="M225 318h37c15-109 102-195 211-209v-29c0-15 12-27 27-27 15 0 27 12 27 27v28c112 11 202 99 217 210h31c15 0 27 12 27 27 0 15-12 27-27 27h-30c-10 116-102 208-218 220v28c0 15-12 27-27 27-15 0-27-12-27-27v-29c-113-14-202-105-212-219h-36c-15 0-27-12-27-27 0-15 12-27 27-27z m248 218v-24c0-15 12-27 27-27 15 0 27 12 27 27v25c86-11 154-79 164-165h-34c-15 0-27-12-27-27 0-15 12-27 27-27h32c-14-81-80-145-162-155v25c0 15-12 27-27 27-15 0-27-12-27-27v-24c-79 12-142 75-156 154h26c15 0 27 12 27 27 0 15-12 27-27 27h-28c10 84 75 151 158 164z" horiz-adv-x="1000" />

<glyph glyph-name="question" unicode="&#xe819;" d="M500 749c-220 0-399-179-399-399s179-399 399-399c220 0 399 179 399 399s-179 399-399 399z m0-55c190 0 343-154 343-344s-153-343-343-343c-190 0-343 153-343 343s153 344 343 344z m0-84c-78 0-141-51-157-114-4-15 4-30 19-34 15-5 30 4 35 18 0 1 0 2 0 3 9 33 51 71 103 71 26 0 53-9 72-25 19-15 30-35 30-58 0-31-6-44-14-55-9-11-22-19-39-31-18-13-38-30-53-58-15-27-24-64-24-116 0-16 13-28 28-28s28 12 28 28c0 45 8 72 17 90 9 18 21 27 36 38 15 11 35 22 51 43 16 20 26 50 26 89 0 41-22 78-51 102-30 24-68 37-107 37z m0-446c-20 0-37-16-37-37 0-20 17-37 37-37s37 17 37 37c0 21-16 37-37 37z" horiz-adv-x="1000" />

<glyph glyph-name="envelop" unicode="&#xe81a;" d="M246 745c-23 0-42-20-42-43v-704c0-23 19-43 42-43h1128c23 0 42 20 42 43v704c0 23-19 43-42 43h-1128l0 0z m15-57h1099v-41l-550-403-549 403 0 41 0 0z m0-112l532-389c10-8 24-8 34 0l533 389v-564h-1099v564l0 0z" horiz-adv-x="1620" />

<glyph glyph-name="arrow-next" unicode="&#xe81b;" d="M659 370l-269 323c-11 13-31 15-44 4-14-12-16-31-5-45l252-302-252-302c-11-13-9-33 5-44 13-12 33-10 44 4l269 322c4 6 7 13 7 20 0 7-3 14-7 20z" horiz-adv-x="1000" />

<glyph glyph-name="arrow-down" unicode="&#xe81c;" d="M520 192l323 268c13 11 15 31 4 45-12 13-31 15-45 4l-302-252-302 252c-13 11-33 9-44-4-12-14-10-34 4-45l322-268c6-5 13-8 20-8 7 0 14 3 20 8z" horiz-adv-x="1000" />

<glyph glyph-name="arrow-right" unicode="&#xe81d;" d="M772 350c-1 9-4 19-10 25l-191 203c-13 12-38 17-53 3-14-13-13-39 1-52l134-143h-389c-20 0-36-16-36-36 0-20 16-36 36-36h389l-134-142c-12-13-15-39-1-53 15-13 40-9 53 3l191 203c7 7 10 16 10 25l0 0z" horiz-adv-x="1000" />

<glyph glyph-name="search" unicode="&#xe81e;" d="M443 702c-163 0-295-132-295-295 0-162 132-295 295-295 71 0 136 26 187 68l174-174c11-11 29-11 40 0 11 11 11 30 0 41l-173 173c42 51 67 116 67 187 0 163-132 295-295 295l0 0z m0-57c132 0 238-106 238-238 0-132-106-238-238-238-132 0-238 106-238 238 0 132 106 238 238 238z" horiz-adv-x="1000" />

<glyph glyph-name="corporate_expense_dollar" unicode="&#xe81f;" d="M692-148c-159 0-287 128-287 286 0 159 128 287 287 287s286-128 286-287c0-158-128-286-286-286z m0 535c-137 0-247-112-247-247s112-247 247-247 246 112 246 247-111 247-246 247z m-245 158h-304c-11 0-20 8-20 20s9 20 20 20h304c11 0 20-8 20-20s-9-20-20-20z m0 107h-304c-11 0-20 8-20 20s10 20 20 20h304c11 0 20-9 20-20s-9-20-20-20z m0-214h-304c-11 0-20 9-20 20s9 20 20 20h304c11 0 20-8 20-20s-9-20-20-20z m-165-106h-139c-11 0-20 8-20 20 0 11 9 20 20 20h139c11 0 20-9 20-20 0-12-9-20-20-20z m128-229h-332c-31 0-56 25-56 57v633c0 32 25 57 56 57h435c32 0 57-25 57-57v-410c0-11-8-20-20-20-12 0-20 9-20 20v412c0 10-8 17-17 17h-435c-10 0-16-9-16-17v-633c0-10 8-17 16-17h332c12 0 20-8 20-20 0-12-8-22-20-22z m300-100c-22 0-78 5-107 47-6 10-3 22 7 28 10 7 22 4 28-6 20-32 79-29 79-29 21 0 38 17 38 37 0 20-17 37-37 37h-40c-41 0-76 35-76 76 0 42 33 77 75 77 11 2 60 7 98-42 7-8 5-21-3-28-9-7-22-5-29 3-26 34-60 27-60 27-1 0-3 0-5 0-20 0-36-17-36-37 0-20 16-36 36-36h40c42 0 77-35 77-77 0-42-35-77-77-77 0 0-3 0-8 0z m-18-43c-12 0-20 8-20 20v317c0 11 8 20 20 20 11 0 20-9 20-20v-317c0-10-9-20-20-20z" horiz-adv-x="1000" />

<glyph glyph-name="corporate_expense_euro" unicode="&#xe820;" d="M692-150c-159 0-287 128-287 287s128 288 287 288c158 0 286-128 286-287s-128-288-286-288z m0 535c-137 0-247-112-247-247s112-246 247-246 246 111 246 246-111 247-246 247z m33-397c-82 0-148 67-148 149s66 148 148 148c32 0 63-10 90-32l-25-31c-20 15-42 23-65 23-60 0-108-48-108-108 0-60 48-109 108-109 23 0 47 9 65 24l25-32c-27-20-58-32-90-32z m-315 114h-332c-31 0-56 25-56 56v634c0 33 25 58 56 58h435c32 0 57-25 57-57v-411h-40v411c0 10-8 17-17 17h-435c-10 0-16-8-16-17v-633c0-10 8-17 16-17h332v-41z" horiz-adv-x="1000" />

<glyph glyph-name="flexible_remuneration_dollar" unicode="&#xe821;" d="M500 205c-115 0-210 93-210 210s95 210 210 210c115 0 210-93 210-210s-95-210-210-210z m0 380c-93 0-170-77-170-170s77-172 170-172 170 77 170 170-75 172-170 172z m8-257c-13 0-50 4-68 30-3 7-2 15 5 19 7 3 15 1 18-5 10-17 39-19 49-19 13 0 23 10 23 22 0 12-10 22-22 22h-25c-26 0-50 21-50 50 0 26 22 50 50 50-1 0 35 8 62-27 5-7 3-15-2-18-6-5-15-4-18 1-17 20-37 17-37 17-15 0-25-10-25-23 0-12 10-22 22-22h25c27 0 50-22 50-50 0-27-22-50-50-50-2 3-5 3-7 3z m-11-26c-9 0-14 6-14 13v200c0 8 7 13 14 13s13-6 13-13v-200c0-8-7-13-13-13z m88-227c-3 0-7 0-8 2l-77 38-77-38c-6-4-13-4-18 1-5 4-8 10-8 17v145c0 10 8 20 20 20 10 0 20-8 20-20v-115l56 28c5 4 12 4 17 0l57-28v115c0 10 8 20 20 20 10 0 20-8 20-20v-145c0-7-4-13-9-17-5-1-10-3-13-3z m-558 205c-10 0-19 7-20 17-2 18-4 35-4 53 0 275 215 500 482 500 207 0 390-137 457-340 3-10-2-22-12-25-10-3-22 2-25 12-60 188-228 315-418 315-244 0-444-207-444-462 0-17 2-33 4-50 1-10-7-20-17-22-2 2-2 2-3 2z m460-430c-187 0-357 113-437 287-5 10 0 21 10 25 10 5 22 0 25-10 73-160 230-265 400-265 243 0 442 206 442 461 0 10 8 20 20 20 10 0 20-8 20-20 0-273-215-498-480-498z m436 637c-1 0-3 0-6 1l-177 59c-10 3-15 15-12 25 4 10 15 15 25 11l157-51 47 160c3 10 13 16 23 13 10-3 17-13 13-23l-51-180c-2-5-5-10-10-12-2-2-5-3-9-3z m-893-539c-2 0-3 0-3 0-10 2-17 12-15 24l35 185c1 5 3 10 8 13s10 3 15 3l180-41c10-2 17-14 15-24-2-10-12-16-23-15l-162 37-30-165c-2-10-10-17-20-17z" horiz-adv-x="1000" />

<glyph glyph-name="arrow-previous" unicode="&#xe822;" d="M333 350c0-6 0-17 6-22l267-322c11-12 33-17 44-6 11 11 17 33 6 44l-250 306 250 300c16 17 11 33 0 44-12 12-34 12-45-5l-272-317c0-5-6-16-6-22z" horiz-adv-x="1000" />

<glyph glyph-name="arrow-up" unicode="&#xe823;" d="M478 511l-322-272c-12-11-17-33-6-45 17-11 33-16 50-5l300 255 300-250c11-11 33-11 44 6 12 11 12 33-5 44l-317 267c-5 0-16 6-22 6s-17-6-22-6z" horiz-adv-x="1000" />

<glyph glyph-name="arrow-left" unicode="&#xe824;" d="M228 348c0-11 5-17 11-22l189-206c11-11 39-16 50-5 16 11 11 39 0 50l-134 150h389c23 0 34 16 34 33s-17 33-34 33h-389l134 145c11 11 16 39 0 50s-39 11-50-6l-189-205c-6 5-11-6-11-17l0 0z" horiz-adv-x="1000" />

<glyph glyph-name="offers" unicode="&#xe825;" d="M448-46c-19 0-32 13-32 13l-280 292c-6 7-19 13-19 33 0 19 13 32 19 39l384 396c13 13 26 13 32 13l279-7c26 0 46-19 46-45v-286c0-19-13-32-13-39l-383-396c-7 0-13-13-33-13z m0 45l0 0 0 0 390 403 6 6v286l-6 7-286 0c0 0-6-7 0 0l-390-403m280-292l0 0m279 500c-33 0-65 32-65 65s32 65 65 65c32 0 65-33 65-65s-26-65-65-65z m0 97c-13 0-26-13-26-26 0-13 13-26 26-26 13 0 26 13 26 26 0 13-7 26-26 26z" horiz-adv-x="1000" />

<glyph glyph-name="flexible_remuneration_euro" unicode="&#xe826;" d="M505 200c-115 0-210 93-210 210s93 210 210 210 210-93 210-210-95-210-210-210z m0 380c-93 0-170-77-170-170s77-170 170-170 170 77 170 170-77 170-170 170z m23-282c-61 0-110 50-110 110 0 62 50 110 110 110 25 0 47-8 67-23 8-7 10-18 3-27-6-8-18-10-26-3-14 10-29 15-44 15-40 0-71-32-71-72s31-71 71-71c15 0 30 5 44 15 8 6 20 5 26-4 7-8 5-20-3-26-20-15-43-24-67-24z m27 117h-152c-10 0-20 8-20 20 0 10 9 20 20 20h152c10 0 20-8 20-20 0-12-8-20-20-20z m0-52h-152c-10 0-20 9-20 20 0 10 9 20 20 20h152c10 0 20-8 20-20 0-11-8-20-20-20z m35-293c-3 0-7 0-8 2l-77 38-77-38c-6-4-13-4-18 1-5 4-8 10-8 17v145c0 10 8 20 20 20s20-8 20-20v-115l56 28c5 4 12 4 17 0l57-28v115c0 10 8 20 20 20s20-8 20-20v-145c0-7-4-13-9-17-6-1-10-3-13-3z m-558 203c-10 0-19 7-20 17-2 18-4 35-4 53 0 275 215 500 482 500 207 0 390-136 457-340 3-10-2-21-12-25-10-3-22 2-25 12-62 190-230 315-420 315-243 0-442-207-442-460 0-17 2-33 2-50 2-10-7-20-17-22 0 0-1 0-1 0z m458-428c-185 0-357 112-435 287-5 10 0 21 10 25 10 5 22 0 25-10 73-160 230-264 400-264 245 0 443 207 443 462 0 10 9 20 20 20s20-8 20-20c-1-277-218-500-483-500z m438 637c-1 0-3 0-6 1l-177 59c-10 3-15 15-12 25 4 10 15 15 25 11l157-51 47 160c3 10 13 16 23 13 10-3 17-13 13-23l-51-180c-2-5-5-10-10-12-4-3-5-3-9-3z m-893-539c-2 0-3 0-3 0-10 2-17 12-15 24l35 183c1 5 3 10 8 13s10 4 15 4l180-42c10-2 17-13 15-23-2-10-12-17-23-15l-162 36-32-165c-1-8-10-15-18-15z" horiz-adv-x="1000" />

<glyph glyph-name="health_wellness" unicode="&#xe827;" d="M303 297c-3 0-5 0-8 1l-75 32h-168c-10 2-19 10-19 20s9 20 20 20h172c3 0 5 0 8-2l62-26 92 208c3 7 8 10 16 12 7 0 14-4 19-9l111-170h130l74 167c3 7 10 12 16 12 7 0 14-4 19-10l68-114h138c10 0 20-8 20-20 0-10-8-20-20-20h-148c-7 0-13 4-17 10l-56 92-65-145c-4-7-10-12-19-12h-153c-7 0-13 4-17 9l-98 150-85-194c-2-6-10-11-17-11z m222-399c-5 0-8 2-13 5l-405 347c-105 87-107 225-107 232 15 285 262 315 265 316 125 17 203-38 235-66 32 28 110 83 237 65 1 0 248-30 263-314 0-5 10-121-85-216l-377-362c-5-5-8-7-13-7z m-213 865c-14 0-29-1-44-3-8-2-216-28-230-280 0 0 2-127 94-200 0 0 0 0 0 0l391-335 364 350c81 80 75 185 75 187-14 250-222 276-230 278-144 20-215-65-217-67-3-5-8-6-15-6 0 0 0 0 0 0-5 0-12 3-15 6-3 4-60 70-173 70z" horiz-adv-x="1000" />

<glyph glyph-name="leisure_offers" unicode="&#xe828;" d="M662 168c-24 0-70 5-122 45-75 57-173 195-212 532l-3 30 28-10c4-2 300-102 620 0l27 8-2-28c-1-22-30-540-321-577 0 2-5 0-15 0z m-292 552c38-302 127-425 193-477 59-43 107-36 107-36 227 28 277 406 287 513-265-75-505-23-587 0z m458-200c-3 0-6 2-10 3-48 32-108 0-108 0-10-6-22-1-27 7-5 10-1 22 9 27 3 1 80 43 148 0 8-5 12-19 7-27-7-7-14-10-19-10z m-328 0c-7 0-13 3-17 10-5 10-1 22 9 27 3 1 80 43 148 0 8-5 12-19 7-27-5-8-19-12-27-7-50 32-108 0-108 0-7-1-10-3-12-3z m168-218c-10 0-85 3-115 80-1 6-1 13 2 18 3 5 10 8 17 8h191c10 0 20-8 20-20 0-1-1-73-115-86 2 0 0 0 0 0z m-63 68c25-30 62-30 63-30 40 5 60 18 69 30h-132z m-175-445c-23 0-53 5-88 20-87 37-215 148-332 467l-10 28 30-3c2 0 168-15 370 43l10-37c-160-46-297-48-355-46 108-285 222-384 300-419 67-28 112-10 113-10 80 30 134 105 159 224l38-9c-27-131-88-216-182-251 0 1-20-7-53-7z m-175 318c-13 0-27 2-42 7-10 3-15 15-11 25 3 10 15 15 25 12 55-19 105 25 105 26 8 7 20 7 26-1 7-9 7-20-1-27 0-3-44-42-102-42z m195 45c-13 0-27 2-40 7-10 3-15 15-12 25 4 10 15 15 25 12 20-7 34-7 47-4 10 2 20-3 23-13 4-10-3-20-13-23-12-2-20-4-30-4z m-103-251c-4 0-7 1-10 3-5 3-7 7-9 12 0 3-16 73 90 111 5 2 82 19 132-51 3-5 5-12 2-19-2-6-7-10-14-11l-188-45c-2 0-3 0-3 0z m98 91c-10 0-17-1-17-1-38-14-53-32-60-45l129 30c-20 13-39 16-52 16z" horiz-adv-x="1000" />

<glyph glyph-name="motivation" unicode="&#xe829;" d="M797-127c-4 0-7 0-9 2l-288 152-288-152c-7-3-15-3-20 2-7 5-9 11-9 18l55 322-233 226c-5 7-7 14-3 20 1 7 8 12 15 14l321 46 145 292c4 7 10 10 17 10l0 0c7 0 13-3 17-10l143-292 323-46c7-2 14-7 15-14 2-6 0-15-5-20l-231-226 55-320c1-7-2-15-9-19-3-3-6-5-11-5z m-737 572l212-207c5-5 6-10 5-16l-50-292 265 137c5 3 11 3 18 0l263-139-50 292c-1 7 2 13 5 17l212 206-293 44c-7 1-12 5-15 10l-132 266-132-266c-3-5-8-10-15-10l-293-42z m440-218c-68 0-123 55-123 123s55 123 123 123c68 0 123-55 123-123s-55-123-123-123z m0 206c-47 0-85-38-85-85s38-85 85-85c47 0 85 39 85 85s-38 85-85 85z m177-383c-10 0-20 8-20 20 0 87-70 157-157 157-87 0-157-70-157-157 0-10-8-20-20-20s-20 8-20 20c0 108 89 195 195 195s195-88 195-195c2-12-6-20-16-20z" horiz-adv-x="1000" />

<glyph glyph-name="needs" unicode="&#xe82a;" d="M243-150c-3 0-6 0-10 2-8 5-11 13-11 21l35 249c-130 71-210 198-210 333 1 218 203 395 453 395s452-177 452-395-202-393-452-393c-7 0-12 0-18 0l-224-207c-5-3-10-5-15-5z m59 282l-29-204 189 172c5 5 13 7 20 5 6 0 11 0 18 0 227 0 410 158 410 352s-183 350-410 350-410-157-410-352c0-122 75-237 197-302 8-3 15-11 15-20 0 0 0-1 0-1z m198 88l-10 7c-57 33-245 153-245 280 0 80 65 145 145 145 43 0 82-19 110-50 28 31 67 50 110 50 80 0 145-65 145-145 0-137-187-250-245-280l-10-7z m-110 390c-57 0-103-47-103-103 0-80 111-177 213-237 47 27 212 130 212 237 0 56-47 103-104 103-31 0-61-15-81-40l-27-38-28 36c-20 27-49 42-82 42z" horiz-adv-x="1000" />

<glyph glyph-name="other_services" unicode="&#xe82b;" d="M320 232c-108 0-197 88-197 196s89 197 197 197c108 0 197-88 197-197s-89-196-197-196z m0 355c-87 0-157-70-157-157s70-157 157-157 157 70 157 157-70 157-157 157z m300-655c-12 0-20 8-20 20 0 155-127 280-280 280-155 0-280-127-280-280 0-12-8-20-20-20s-20 8-20 20c0 176 143 320 320 320s320-144 320-320c0-12-8-20-20-20z m67 631c-20 0-35 15-35 35s15 35 35 35 35-16 35-35-15-35-35-35z m0 39c-2 0-5-2-5-5 0-5 8-5 8 0 2 3 0 5-3 5z m96-39c-20 0-35 15-35 35s15 35 35 35 35-16 35-35-15-35-35-35z m0 39c-1 0-5-2-5-5 0-5 9-5 9 0 1 3-2 5-4 5z m97-39c-20 0-35 15-35 35s15 35 35 35 35-16 35-35-17-35-35-35z m0 39c-2 0-5-2-5-5 0-5 8-5 8 0 0 3-1 5-3 5z m-220-305l13 138h-48c-33 0-60 27-60 60v213c0 34 27 60 60 60h315c33 0 60-26 60-60v-215c0-33-27-60-60-60h-130l-150-136z m-33 431c-12 0-20-8-20-20v-215c0-11 8-20 20-20h91l-8-78 85 78h145c12 0 20 9 20 20v215c0 12-8 20-20 20h-313z" horiz-adv-x="1000" />

<glyph glyph-name="pass_restaurant" unicode="&#xe82c;" d="M942 22h-884c-31 0-58 26-58 58v542c0 31 27 58 58 58h885c32 0 59-27 59-58v-542c-2-33-29-58-60-58z m-884 618c-10 0-20-8-20-20v-542c0-10 9-20 20-20h885c10 0 20 9 20 20v544c0 10-8 20-20 20h-885z" horiz-adv-x="1000" />

<glyph glyph-name="public_solutions" unicode="&#xe82d;" d="M263 425c-6 0-13 3-16 10-5 10-4 22 6 27l240 143c7 3 14 3 20 0l240-143c10-5 14-19 7-27-5-10-18-13-27-7l-230 139-230-139c-3-1-6-3-10-3z m245 145c-11 0-20 8-20 20v173c0 12 9 20 20 20h152c12 0 20-8 20-20v-88c0-12-8-20-20-20h-92c-11 0-20 8-20 20 0 12 9 20 20 20h72v48h-112v-153c0-12-8-20-20-20z m-220-520c-11 0-20 8-20 20v328c0 12 9 20 20 20s20-8 20-20v-328c0-12-10-20-20-20z m430 0c-11 0-20 8-20 20v328c0 12 9 20 20 20s20-8 20-20v-328c0-12-8-20-20-20z m-261 272h-72c-12 0-20 8-20 20v101c0 12 8 20 20 20h72c11 0 20-8 20-20v-101c0-10-9-20-20-20z m-52 40h32v61h-32v-61z m217-40h-72c-12 0-20 8-20 20v101c0 12 8 20 20 20h72c11 0 20-8 20-20v-101c-2-10-10-20-20-20z m-52 40h32v61h-32v-61z m78-179h-290c-11 0-20 9-20 20s9 20 20 20h290c12 0 20-8 20-20s-8-20-20-20z m-263-190c-12 0-20 9-20 20v189c0 11 8 20 20 20 12 0 20-9 20-20v-190c0-10-8-19-20-19z m237 0c-12 0-20 9-20 20v189c0 11 8 20 20 20s20-9 20-20v-190c-2-10-10-19-20-19z m155-6h-547c-12 0-20 8-20 20 0 11 8 20 20 20h547c11 0 20-9 20-20 0-12-10-20-20-20z m68-70h-683c-12 0-20 8-20 20s8 20 20 20h685c11 0 20-9 20-20s-10-20-22-20z m-342 70c-11 0-20 8-20 20v195c0 11 9 20 20 20 12 0 20-9 20-20v-197c0-10-8-18-20-18z m477-62c-12 0-20 8-20 20v340h-178c-12 0-20 8-20 20 0 12 8 20 20 20h198c12 0 20-8 20-20v-362c0-10-8-18-20-18z m-960 0c-12 0-20 8-20 20v360c0 12 8 20 20 20h198c12 0 20-8 20-20 0-12-8-20-20-20h-178v-342c0-10-8-18-20-18z m863 145h-71c-12 0-20 8-20 20v102c0 11 8 20 20 20h71c12 0 20-9 20-20v-102c0-10-8-20-20-20z m-51 40h31v62h-31v-62z m-644-40h-71c-12 0-20 8-20 20v102c0 11 8 20 20 20h71c12 0 20-9 20-20v-102c-1-10-10-20-20-20z m-51 40h31v62h-31v-62z" horiz-adv-x="1000" />

<glyph glyph-name="work_life_balance" unicode="&#xe82e;" d="M20 507c-5 0-12 1-15 6-7 9-5 20 3 27l280 228c7 5 17 5 25 0l282-226c8-7 10-19 3-27-6-8-18-10-26-3l-270 216-270-216c-4-4-9-5-12-5z m458-219h-355c-20 0-35 15-35 35v264c0 10 9 20 20 20s20-9 20-20v-260h349v260c0 10 8 20 20 20 10 0 20-9 20-20v-264c-4-18-19-35-39-35z m-116 0c-10 0-20 9-20 20v134h-85v-134c0-10-9-20-20-20s-20 9-20 20v137c0 20 15 35 35 35h91c20 0 35-15 35-35v-137c4-10-5-20-16-20z m580-373h-425c-32 0-59 27-59 58v249c0 31 27 58 59 58h425c31 0 58-27 58-58v-249c0-33-27-58-58-58z m-425 325c-10 0-20-8-20-20v-248c0-10 8-20 20-20h425c10 0 20 8 20 20v250c0 10-9 20-20 20h-425z m326 7c-10 0-20 8-20 20v48c0 2-1 3-3 3h-182c-1 0-3-1-3-3v-48c0-10-8-20-20-20-10 0-20 8-20 20v48c0 23 18 42 42 42h181c24 0 42-19 42-42v-48c3-12-7-20-17-20z m-681-332c-5 0-10 2-14 5-8 7-8 20-1 27l683 738c7 8 20 8 27 2 8-7 8-20 1-27l-683-738c-3-5-8-7-13-7z" horiz-adv-x="1000" />

<glyph glyph-name="locator" unicode="&#xe832;" d="M500 504a118 118 0 1 1-118 118 118 118 0 0 1 118-118z m0 186a68 68 0 1 0-68-68 68 68 0 0 0 68 68z m478-787l-177 534c-3 10-13 22-24 22h-108a308 308 0 0 1 48 162 225 225 0 0 1-62 157 213 213 0 0 1-310-1 220 220 0 0 1-62-156 309 309 0 0 1 48-162h-109c-11 0-20-12-24-22l-176-532a26 26 0 0 1 3-23 25 25 0 0 1 21-10h908a24 24 0 0 1 20 9 24 24 0 0 1 4 22z m-596 838a162 162 0 0 0 236 0 180 180 0 0 0 50-124 323 323 0 0 0-52-159 1209 1209 0 0 0-116-158 1212 1212 0 0 0-116 157 323 323 0 0 0-52 159 180 180 0 0 0 50 125z m-301-826l75 229a269 269 0 0 0 34-7l13 50a280 280 0 0 1-31 4l69 203h120c31-44 66-87 101-130v2a66 66 0 0 1 12-13 44 44 0 0 1 26-12h0a44 44 0 0 1 25 12 64 64 0 0 1 12 12v-2c35 41 70 87 101 131h120l51-153h-5v-43h22l93-283z m571 322l10-50a448 448 0 0 0 91 11l0 50a494 494 0 0 1-101-11z m-402-64l-16-48 25-8a481 481 0 0 1 72-22l8 50a440 440 0 0 0-65 19z m259 18l20-46a751 751 0 0 0 88 31l-14 49a798 798 0 0 1-94-34z m-42-20l-3-1a230 230 0 0 0-83-26l4-50a281 281 0 0 1 103 32l-13 21z" horiz-adv-x="1000" />
</font>
</defs>
</svg>
